<svg width="83" height="82" viewBox="0 0 83 82" fill="none" xmlns="http://www.w3.org/2000/svg">
<path d="M22.3217 16.3896H10.6929C9.35874 16.3896 8.27344 17.475 8.27344 18.8091V52.291H22.3217V16.3896Z" fill="#F15D22"/>
<path d="M59.7838 14.8288H52.7597C52.3286 14.8288 51.9792 14.4793 51.9792 14.0484V7.02417H23.8828V15.6085V15.6093C23.8828 15.6093 23.8828 15.6097 23.8828 15.6101V52.2911H59.7838V14.8288ZM32.4678 22.6335C32.0369 22.6335 31.6874 22.284 31.6874 21.853V15.6093C31.6874 15.1783 32.0369 14.8288 32.4678 14.8288H34.8092V12.4874C34.8092 12.0564 35.1587 11.707 35.5897 11.707C36.0206 11.707 36.3701 12.0564 36.3701 12.4874V14.8288H38.7115C39.1425 14.8288 39.4919 15.1783 39.4919 15.6093C39.4919 16.0403 39.1425 16.3897 38.7115 16.3897H33.2483V21.0725H38.7115C39.1425 21.0725 39.4919 21.422 39.4919 21.853V28.0967C39.4919 28.5277 39.1425 28.8772 38.7115 28.8772H36.3701V31.2186C36.3701 31.6495 36.0206 31.999 35.5897 31.999C35.1587 31.999 34.8092 31.6495 34.8092 31.2186V28.8772H32.4678C32.0369 28.8772 31.6874 28.5277 31.6874 28.0967C31.6874 27.6657 32.0369 27.3162 32.4678 27.3162H37.931V22.6335H32.4678ZM54.3206 46.0474H29.346C28.915 46.0474 28.5656 45.6981 28.5656 45.2669C28.5656 44.8358 28.915 44.4865 29.346 44.4865H54.3206C54.7517 44.4865 55.1011 44.8358 55.1011 45.2669C55.1011 45.6981 54.7517 46.0474 54.3206 46.0474ZM54.3206 39.8037H29.346C28.915 39.8037 28.5656 39.4542 28.5656 39.0232C28.5656 38.5922 28.915 38.2428 29.346 38.2428H54.3206C54.7517 38.2428 55.1011 38.5922 55.1011 39.0232C55.1011 39.4542 54.7517 39.8037 54.3206 39.8037Z" fill="#F15D22"/>
<path d="M53.54 8.12769V13.2677H58.68L53.54 8.12769Z" fill="#F15D22"/>
<path d="M72.9735 16.3896H61.3447V52.291H75.3929V18.8091C75.3929 17.475 74.3076 16.3896 72.9735 16.3896Z" fill="#F15D22"/>
<path d="M23.1021 53.8521H8.27344V59.2373C8.27344 60.5714 9.35874 61.6567 10.6929 61.6567H35.5894H48.0767H72.9733C74.3074 61.6567 75.3927 60.5714 75.3927 59.2373V53.8521H60.564H23.1021Z" fill="#F15D22"/>
<path d="M57.28 73.9879H49.87C48.2961 70.6241 47.4162 66.9297 47.3081 63.2175H36.3589C36.2506 66.9297 35.3708 70.6241 33.7968 73.9879H26.0617C25.6307 73.9879 25.2812 74.3373 25.2812 74.7684C25.2812 75.1995 25.6307 75.5489 26.0617 75.5489H57.28C57.7111 75.5489 58.0604 75.1995 58.0604 74.7684C58.0604 74.3373 57.7111 73.9879 57.28 73.9879Z" fill="#F15D22"/>
</svg>
